<svg xmlns="http://www.w3.org/2000/svg" viewBox="0 0 412 412" font-family="Segoe UI,Arial,sans-serif"><circle cx="206" cy="206" r="205" fill="#05070a" stroke="#1f2937" stroke-width="3"/><text x="206" y="66" fill="#f1f5f9" font-size="20" font-weight="700" text-anchor="middle">Medidor de Obra</text><text x="206" y="92" fill="#475569" font-size="14" font-weight="400" text-anchor="middle">Belas Artes</text><rect x="30" y="140" width="40" height="150" rx="16" fill="#0e131c" stroke="#1e293b" stroke-width="1"/><rect x="342" y="140" width="40" height="150" rx="16" fill="#0e131c" stroke="#1e293b" stroke-width="1"/><rect x="86" y="120" width="240" height="190" rx="24" fill="#0e131c" stroke="#1e293b" stroke-width="1"/><rect x="183" y="160" width="46" height="5" rx="2" fill="#0891b2"/><text x="206" y="215" fill="#f1f5f9" font-size="22" font-weight="700" text-anchor="middle">DECLIVIDADE</text><text x="206" y="243" fill="#64748b" font-size="14" font-weight="400" text-anchor="middle">caimento %</text><rect x="150" y="338" width="7" height="7" rx="3" fill="#374151"/><rect x="163" y="338" width="7" height="7" rx="3" fill="#374151"/><rect x="176" y="338" width="16" height="7" rx="3" fill="#e2e8f0"/><rect x="198" y="338" width="7" height="7" rx="3" fill="#374151"/><rect x="211" y="338" width="7" height="7" rx="3" fill="#374151"/><rect x="224" y="338" width="7" height="7" rx="3" fill="#374151"/><rect x="237" y="338" width="7" height="7" rx="3" fill="#374151"/><rect x="250" y="338" width="7" height="7" rx="3" fill="#374151"/></svg>